ffmpeg started on 2025-05-24 at 15:44:17
Report written to "D:\Convert\FFMetrics\reports\psnr_report-6.txt"
Log level: 32
Command line:
ffmpeg -hide_banner -nostdin -i "G:\\\xc0\xed\xe8\xec\xe5\\\xce\xed\xe3\xee\xe8\xed\xe3\xe8\\!_33_\xc7\xe8\xec\xe0_2024\\DreamCast\\\xd1\xf2\xe0\xed\xee\xe2\xff\xf1\xfc \xe2\xee\xeb\xf8\xe5\xe1\xed\xe8\xf6\xe5\xe9\\[DC] Mahou Shoujo ni Akogarete - 09_Telegram_HEVC.mkv" -i "G:\\\xc0\xed\xe8\xec\xe5\\\xce\xed\xe3\xee\xe8\xed\xe3\xe8\\!_33_\xc7\xe8\xec\xe0_2024\\DreamCast\\\xd1\xf2\xe0\xed\xee\xe2\xff\xf1\xfc \xe2\xee\xeb\xf8\xe5\xe1\xed\xe8\xf6\xe5\xe9\\[DC] Mahou Shoujo ni Akogarete - 09_Telegram.mp4" -lavfi "[0:v]settb=AVTB,setpts=PTS-STARTPTS,format=pix_fmts=yuv420p10,fps=24000/1001,scale=1920:1080:flags=bicubic[main];[1:v]settb=AVTB,setpts=PTS-STARTPTS,format=pix_fmts=yuv420p,fps=24000/1001,scale=1920:1080:flags=bicubic[ref];[main][ref]psnr=eof_action=endall:stats_file='D\\:/Convert/FFMetrics/logs/psnr_logfile-6.txt'" -f null -
Input #0, matroska,webm, from 'G:\Аниме\Онгоинги\!_33_Зима_2024\DreamCast\Становясь волшебницей\[DC] Mahou Shoujo ni Akogarete - 09_Telegram_HEVC.mkv':
  Metadata:
    COMPATIBLE_BRANDS: isomiso2avc1mp41
    MAJOR_BRAND     : isom
    MINOR_VERSION   : 512
    ENCODER         : Lavf61.7.100
  Duration: 00:23:47.93, start: -0.021000, bitrate: 1332 kb/s
  Stream #0:0: Video: hevc (Main 10), yuv420p10le(tv, bt709, progressive), 1920x1080 [SAR 1:1 DAR 16:9], 23.98 fps, 23.98 tbr, 1k tbn (default)
      Metadata:
        HANDLER_NAME    : VideoHandler
        VENDOR_ID       : [0][0][0][0]
        ENCODER         : Lavc61.19.100 libx265
        BPS             : 1135306
        DURATION        : 00:23:47.801708333
        NUMBER_OF_FRAMES: 34233
        NUMBER_OF_BYTES : 202623903
        _STATISTICS_WRITING_APP: mkvpropedit v66.0.0 ('Josie') 64-bit
        _STATISTICS_WRITING_DATE_UTC: 2025-05-24 10:31:37
        _STATISTICS_TAGS: BPS DURATION NUMBER_OF_FRAMES NUMBER_OF_BYTES
  Stream #0:1: Audio: aac (LC), 48000 Hz, stereo, fltp (default)
      Metadata:
        HANDLER_NAME    : SoundHandler
        VENDOR_ID       : [0][0][0][0]
        ENCODER         : Lavc61.19.100 aac
        BPS             : 193610
        DURATION        : 00:23:47.925000000
        NUMBER_OF_FRAMES: 66935
        NUMBER_OF_BYTES : 34557726
        _STATISTICS_WRITING_APP: mkvpropedit v66.0.0 ('Josie') 64-bit
        _STATISTICS_WRITING_DATE_UTC: 2025-05-24 10:31:37
        _STATISTICS_TAGS: BPS DURATION NUMBER_OF_FRAMES NUMBER_OF_BYTES
Input #1, mov,mp4,m4a,3gp,3g2,mj2, from 'G:\Аниме\Онгоинги\!_33_Зима_2024\DreamCast\Становясь волшебницей\[DC] Mahou Shoujo ni Akogarete - 09_Telegram.mp4':
  Metadata:
    major_brand     : isom
    minor_version   : 512
    compatible_brands: isomiso2avc1mp41
    encoder         : Lavf60.16.100
  Duration: 00:23:47.87, start: 0.000000, bitrate: 3661 kb/s
  Stream #1:0[0x1](und): Video: h264 (High) (avc1 / 0x31637661), yuv420p(tv, bt709, progressive), 1920x1080 [SAR 1:1 DAR 16:9], 3513 kb/s, 23.98 fps, 23.98 tbr, 24k tbn (default)
      Metadata:
        handler_name    : VideoHandler
        vendor_id       : [0][0][0][0]
        encoder         : Lavc60.31.102 h264_qsv
  Stream #1:1[0x2](und): Audio: aac (HE-AACv2) (mp4a / 0x6134706D), 48000 Hz, stereo, fltp, 144 kb/s (default)
      Metadata:
        handler_name    : SoundHandler
        vendor_id       : [0][0][0][0]
Stream mapping:
  Stream #0:0 (hevc) -> settb:default
  Stream #1:0 (h264) -> settb:default
  psnr:default -> Stream #0:0 (wrapped_avframe)
  Stream #0:1 -> #0:1 (aac (native) -> pcm_s16le (native))
Output #0, null, to 'pipe:':
  Metadata:
    COMPATIBLE_BRANDS: isomiso2avc1mp41
    MAJOR_BRAND     : isom
    MINOR_VERSION   : 512
    encoder         : Lavf61.7.100
  Stream #0:0: Video: wrapped_avframe, yuv420p10le(tv, bt709, progressive), 1920x1080 [SAR 1:1 DAR 16:9], q=2-31, 200 kb/s, 23.98 fps, 23.98 tbn
      Metadata:
        encoder         : Lavc61.19.100 wrapped_avframe
  Stream #0:1: Audio: pcm_s16le, 48000 Hz, stereo, s16, 1536 kb/s (default)
      Metadata:
        HANDLER_NAME    : SoundHandler
        VENDOR_ID       : [0][0][0][0]
        _STATISTICS_TAGS: BPS DURATION NUMBER_OF_FRAMES NUMBER_OF_BYTES
        BPS             : 193610
        DURATION        : 00:23:47.925000000
        NUMBER_OF_FRAMES: 66935
        NUMBER_OF_BYTES : 34557726
        _STATISTICS_WRITING_APP: mkvpropedit v66.0.0 ('Josie') 64-bit
        _STATISTICS_WRITING_DATE_UTC: 2025-05-24 10:31:37
        encoder         : Lavc61.19.100 pcm_s16le
frame=  191 fps=0.0 q=-0.0 size=N/A time=00:00:07.96 bitrate=N/A speed=15.5x    frame=  442 fps=432 q=-0.0 size=N/A time=00:00:18.43 bitrate=N/A speed=  18x    frame=  708 fps=457 q=-0.0 size=N/A time=00:00:29.52 bitrate=N/A speed=19.1x    frame=  976 fps=474 q=-0.0 size=N/A time=00:00:40.70 bitrate=N/A speed=19.8x    frame= 1242 fps=483 q=-0.0 size=N/A time=00:00:51.80 bitrate=N/A speed=20.1x    frame= 1454 fps=469 q=-0.0 size=N/A time=00:01:00.64 bitrate=N/A speed=19.6x    frame= 1658 fps=460 q=-0.0 size=N/A time=00:01:09.15 bitrate=N/A speed=19.2x    frame= 1887 fps=458 q=-0.0 size=N/A time=00:01:18.70 bitrate=N/A speed=19.1x    frame= 2141 fps=461 q=-0.0 size=N/A time=00:01:29.29 bitrate=N/A speed=19.2x    frame= 2399 fps=466 q=-0.0 size=N/A time=00:01:40.05 bitrate=N/A speed=19.4x    frame= 2648 fps=467 q=-0.0 size=N/A time=00:01:50.44 bitrate=N/A speed=19.5x    frame= 2870 fps=464 q=-0.0 size=N/A time=00:01:59.70 bitrate=N/A speed=19.3x    frame= 3063 fps=457 q=-0.0 size=N/A time=00:02:07.75 bitrate=N/A speed=19.1x    frame= 3306 fps=458 q=-0.0 size=N/A time=00:02:17.88 bitrate=N/A speed=19.1x    frame= 3513 fps=454 q=-0.0 size=N/A time=00:02:26.52 bitrate=N/A speed=18.9x    frame= 3741 fps=454 q=-0.0 size=N/A time=00:02:36.03 bitrate=N/A speed=18.9x    frame= 3955 fps=452 q=-0.0 size=N/A time=00:02:44.95 bitrate=N/A speed=18.8x    frame= 4114 fps=443 q=-0.0 size=N/A time=00:02:51.58 bitrate=N/A speed=18.5x    frame= 4304 fps=439 q=-0.0 size=N/A time=00:02:59.51 bitrate=N/A speed=18.3x    frame= 4500 fps=437 q=-0.0 size=N/A time=00:03:07.68 bitrate=N/A speed=18.2x    frame= 4620 fps=427 q=-0.0 size=N/A time=00:03:12.69 bitrate=N/A speed=17.8x    frame= 4824 fps=426 q=-0.0 size=N/A time=00:03:21.20 bitrate=N/A speed=17.8x    frame= 5092 fps=429 q=-0.0 size=N/A time=00:03:32.37 bitrate=N/A speed=17.9x    frame= 5367 fps=434 q=-0.0 size=N/A time=00:03:43.84 bitrate=N/A speed=18.1x    frame= 5612 fps=436 q=-0.0 size=N/A time=00:03:54.06 bitrate=N/A speed=18.2x    frame= 5885 fps=439 q=-0.0 size=N/A time=00:04:05.45 bitrate=N/A speed=18.3x    frame= 6151 fps=442 q=-0.0 size=N/A time=00:04:16.54 bitrate=N/A speed=18.4x    frame= 6395 fps=443 q=-0.0 size=N/A time=00:04:26.72 bitrate=N/A speed=18.5x    frame= 6655 fps=445 q=-0.0 size=N/A time=00:04:37.56 bitrate=N/A speed=18.6x    frame= 6919 fps=447 q=-0.0 size=N/A time=00:04:48.57 bitrate=N/A speed=18.7x    frame= 7196 fps=450 q=-0.0 size=N/A time=00:05:00.13 bitrate=N/A speed=18.8x    frame= 7471 fps=453 q=-0.0 size=N/A time=00:05:11.60 bitrate=N/A speed=18.9x    frame= 7750 fps=456 q=-0.0 size=N/A time=00:05:23.23 bitrate=N/A speed=  19x    frame= 8005 fps=457 q=-0.0 size=N/A time=00:05:33.87 bitrate=N/A speed=19.1x    frame= 8253 fps=457 q=-0.0 size=N/A time=00:05:44.21 bitrate=N/A speed=19.1x    frame= 8466 fps=456 q=-0.0 size=N/A time=00:05:53.10 bitrate=N/A speed=  19x    frame= 8690 fps=456 q=-0.0 size=N/A time=00:06:02.44 bitrate=N/A speed=  19x    frame= 8949 fps=457 q=-0.0 size=N/A time=00:06:13.24 bitrate=N/A speed=  19x    frame= 9218 fps=458 q=-0.0 size=N/A time=00:06:24.46 bitrate=N/A speed=19.1x    frame= 9499 fps=461 q=-0.0 size=N/A time=00:06:36.18 bitrate=N/A speed=19.2x    frame= 9726 fps=460 q=-0.0 size=N/A time=00:06:45.65 bitrate=N/A speed=19.2x    frame= 9973 fps=461 q=-0.0 size=N/A time=00:06:55.95 bitrate=N/A speed=19.2x    frame=10235 fps=462 q=-0.0 size=N/A time=00:07:06.88 bitrate=N/A speed=19.3x    frame=10427 fps=460 q=-0.0 size=N/A time=00:07:14.89 bitrate=N/A speed=19.2x    frame=10657 fps=459 q=-0.0 size=N/A time=00:07:24.48 bitrate=N/A speed=19.2x    frame=10878 fps=459 q=-0.0 size=N/A time=00:07:33.70 bitrate=N/A speed=19.1x    frame=11073 fps=457 q=-0.0 size=N/A time=00:07:41.83 bitrate=N/A speed=19.1x    frame=11255 fps=455 q=-0.0 size=N/A time=00:07:49.42 bitrate=N/A speed=  19x    frame=11461 fps=454 q=-0.0 size=N/A time=00:07:58.01 bitrate=N/A speed=18.9x    frame=11682 fps=453 q=-0.0 size=N/A time=00:08:07.23 bitrate=N/A speed=18.9x    frame=11943 fps=454 q=-0.0 size=N/A time=00:08:18.12 bitrate=N/A speed=18.9x    frame=12214 fps=455 q=-0.0 size=N/A time=00:08:29.42 bitrate=N/A speed=  19x    frame=12473 fps=456 q=-0.0 size=N/A time=00:08:40.22 bitrate=N/A speed=  19x    frame=12718 fps=457 q=-0.0 size=N/A time=00:08:50.44 bitrate=N/A speed=  19x    frame=12890 fps=454 q=-0.0 size=N/A time=00:08:57.62 bitrate=N/A speed=  19x    frame=13117 fps=454 q=-0.0 size=N/A time=00:09:07.08 bitrate=N/A speed=18.9x    frame=13328 fps=453 q=-0.0 size=N/A time=00:09:15.88 bitrate=N/A speed=18.9x    frame=13566 fps=453 q=-0.0 size=N/A time=00:09:25.81 bitrate=N/A speed=18.9x    frame=13836 fps=455 q=-0.0 size=N/A time=00:09:37.07 bitrate=N/A speed=  19x    frame=14074 fps=455 q=-0.0 size=N/A time=00:09:47.00 bitrate=N/A speed=  19x    frame=14325 fps=455 q=-0.0 size=N/A time=00:09:57.47 bitrate=N/A speed=  19x    frame=14576 fps=456 q=-0.0 size=N/A time=00:10:07.94 bitrate=N/A speed=  19x    frame=14765 fps=454 q=-0.0 size=N/A time=00:10:15.82 bitrate=N/A speed=  19x    frame=14926 fps=452 q=-0.0 size=N/A time=00:10:22.53 bitrate=N/A speed=18.9x    frame=15159 fps=452 q=-0.0 size=N/A time=00:10:32.25 bitrate=N/A speed=18.9x    frame=15435 fps=453 q=-0.0 size=N/A time=00:10:43.76 bitrate=N/A speed=18.9x    frame=15689 fps=454 q=-0.0 size=N/A time=00:10:54.36 bitrate=N/A speed=18.9x    frame=15920 fps=454 q=-0.0 size=N/A time=00:11:03.99 bitrate=N/A speed=18.9x    frame=16150 fps=454 q=-0.0 size=N/A time=00:11:13.58 bitrate=N/A speed=18.9x    frame=16368 fps=453 q=-0.0 size=N/A time=00:11:22.68 bitrate=N/A speed=18.9x    frame=16583 fps=453 q=-0.0 size=N/A time=00:11:31.64 bitrate=N/A speed=18.9x    frame=16782 fps=452 q=-0.0 size=N/A time=00:11:39.94 bitrate=N/A speed=18.8x    frame=17029 fps=452 q=-0.0 size=N/A time=00:11:50.29 bitrate=N/A speed=18.9x    frame=17274 fps=453 q=-0.0 size=N/A time=00:12:00.46 bitrate=N/A speed=18.9x    frame=17481 fps=452 q=-0.0 size=N/A time=00:12:09.10 bitrate=N/A speed=18.8x    frame=17672 fps=451 q=-0.0 size=N/A time=00:12:17.06 bitrate=N/A speed=18.8x    frame=17949 fps=452 q=-0.0 size=N/A time=00:12:28.62 bitrate=N/A speed=18.9x    frame=18206 fps=452 q=-0.0 size=N/A time=00:12:39.34 bitrate=N/A speed=18.9x    frame=18376 fps=451 q=-0.0 size=N/A time=00:12:46.43 bitrate=N/A speed=18.8x    frame=18550 fps=450 q=-0.0 size=N/A time=00:12:53.68 bitrate=N/A speed=18.8x    frame=18759 fps=449 q=-0.0 size=N/A time=00:13:02.40 bitrate=N/A speed=18.7x    frame=18950 fps=448 q=-0.0 size=N/A time=00:13:10.37 bitrate=N/A speed=18.7x    frame=19208 fps=449 q=-0.0 size=N/A time=00:13:21.13 bitrate=N/A speed=18.7x    frame=19499 fps=450 q=-0.0 size=N/A time=00:13:33.27 bitrate=N/A speed=18.8x    frame=19759 fps=451 q=-0.0 size=N/A time=00:13:44.11 bitrate=N/A speed=18.8x    frame=19998 fps=451 q=-0.0 size=N/A time=00:13:54.08 bitrate=N/A speed=18.8x    frame=20270 fps=452 q=-0.0 size=N/A time=00:14:05.42 bitrate=N/A speed=18.8x    frame=20547 fps=453 q=-0.0 size=N/A time=00:14:16.98 bitrate=N/A speed=18.9x    frame=20814 fps=453 q=-0.0 size=N/A time=00:14:28.11 bitrate=N/A speed=18.9x    frame=21087 fps=454 q=-0.0 size=N/A time=00:14:39.50 bitrate=N/A speed=18.9x    frame=21332 fps=454 q=-0.0 size=N/A time=00:14:49.72 bitrate=N/A speed=  19x    frame=21602 fps=455 q=-0.0 size=N/A time=00:15:00.98 bitrate=N/A speed=  19x    frame=21855 fps=456 q=-0.0 size=N/A time=00:15:11.53 bitrate=N/A speed=  19x    frame=22114 fps=456 q=-0.0 size=N/A time=00:15:22.33 bitrate=N/A speed=  19x    frame=22348 fps=456 q=-0.0 size=N/A time=00:15:32.09 bitrate=N/A speed=  19x    frame=22623 fps=457 q=-0.0 size=N/A time=00:15:43.56 bitrate=N/A speed=19.1x    frame=22896 fps=458 q=-0.0 size=N/A time=00:15:54.95 bitrate=N/A speed=19.1x    frame=23179 fps=459 q=-0.0 size=N/A time=00:16:06.75 bitrate=N/A speed=19.1x    frame=23455 fps=459 q=-0.0 size=N/A time=00:16:18.26 bitrate=N/A speed=19.2x    frame=23705 fps=460 q=-0.0 size=N/A time=00:16:28.69 bitrate=N/A speed=19.2x    frame=23908 fps=459 q=-0.0 size=N/A time=00:16:37.16 bitrate=N/A speed=19.1x    frame=24139 fps=459 q=-0.0 size=N/A time=00:16:46.79 bitrate=N/A speed=19.1x    frame=24410 fps=460 q=-0.0 size=N/A time=00:16:58.10 bitrate=N/A speed=19.2x    frame=24688 fps=460 q=-0.0 size=N/A time=00:17:09.69 bitrate=N/A speed=19.2x    frame=24966 fps=461 q=-0.0 size=N/A time=00:17:21.29 bitrate=N/A speed=19.2x    frame=25248 fps=462 q=-0.0 size=N/A time=00:17:33.05 bitrate=N/A speed=19.3x    frame=25500 fps=462 q=-0.0 size=N/A time=00:17:43.56 bitrate=N/A speed=19.3x    frame=25645 fps=460 q=-0.0 size=N/A time=00:17:49.61 bitrate=N/A speed=19.2x    frame=25838 fps=460 q=-0.0 size=N/A time=00:17:57.65 bitrate=N/A speed=19.2x    frame=26095 fps=460 q=-0.0 size=N/A time=00:18:08.37 bitrate=N/A speed=19.2x    frame=26357 fps=460 q=-0.0 size=N/A time=00:18:19.30 bitrate=N/A speed=19.2x    frame=26632 fps=461 q=-0.0 size=N/A time=00:18:30.77 bitrate=N/A speed=19.2x    frame=26867 fps=461 q=-0.0 size=N/A time=00:18:40.57 bitrate=N/A speed=19.2x    frame=27100 fps=461 q=-0.0 size=N/A time=00:18:50.29 bitrate=N/A speed=19.2x    frame=27310 fps=460 q=-0.0 size=N/A time=00:18:59.05 bitrate=N/A speed=19.2x    frame=27534 fps=460 q=-0.0 size=N/A time=00:19:08.39 bitrate=N/A speed=19.2x    frame=27750 fps=460 q=-0.0 size=N/A time=00:19:17.40 bitrate=N/A speed=19.2x    frame=27954 fps=459 q=-0.0 size=N/A time=00:19:25.91 bitrate=N/A speed=19.2x    frame=28221 fps=460 q=-0.0 size=N/A time=00:19:37.05 bitrate=N/A speed=19.2x    frame=28470 fps=460 q=-0.0 size=N/A time=00:19:47.43 bitrate=N/A speed=19.2x    frame=28732 fps=460 q=-0.0 size=N/A time=00:19:58.36 bitrate=N/A speed=19.2x    frame=28982 fps=460 q=-0.0 size=N/A time=00:20:08.79 bitrate=N/A speed=19.2x    frame=29227 fps=461 q=-0.0 size=N/A time=00:20:19.00 bitrate=N/A speed=19.2x    frame=29447 fps=460 q=-0.0 size=N/A time=00:20:28.18 bitrate=N/A speed=19.2x    frame=29697 fps=461 q=-0.0 size=N/A time=00:20:38.61 bitrate=N/A speed=19.2x    frame=29961 fps=461 q=-0.0 size=N/A time=00:20:49.62 bitrate=N/A speed=19.2x    frame=30190 fps=461 q=-0.0 size=N/A time=00:20:59.17 bitrate=N/A speed=19.2x    frame=30462 fps=461 q=-0.0 size=N/A time=00:21:10.51 bitrate=N/A speed=19.2x    frame=30687 fps=461 q=-0.0 size=N/A time=00:21:19.90 bitrate=N/A speed=19.2x    frame=30959 fps=462 q=-0.0 size=N/A time=00:21:31.24 bitrate=N/A speed=19.3x    frame=31238 fps=462 q=-0.0 size=N/A time=00:21:42.88 bitrate=N/A speed=19.3x    frame=31532 fps=463 q=-0.0 size=N/A time=00:21:55.14 bitrate=N/A speed=19.3x    frame=31766 fps=463 q=-0.0 size=N/A time=00:22:04.90 bitrate=N/A speed=19.3x    frame=31993 fps=463 q=-0.0 size=N/A time=00:22:14.37 bitrate=N/A speed=19.3x    frame=32265 fps=463 q=-0.0 size=N/A time=00:22:25.71 bitrate=N/A speed=19.3x    frame=32518 fps=464 q=-0.0 size=N/A time=00:22:36.27 bitrate=N/A speed=19.3x    frame=32767 fps=464 q=-0.0 size=N/A time=00:22:46.65 bitrate=N/A speed=19.3x    frame=33016 fps=464 q=-0.0 size=N/A time=00:22:57.04 bitrate=N/A speed=19.3x    frame=33252 fps=464 q=-0.0 size=N/A time=00:23:06.88 bitrate=N/A speed=19.3x    frame=33500 fps=464 q=-0.0 size=N/A time=00:23:17.22 bitrate=N/A speed=19.3x    frame=33774 fps=464 q=-0.0 size=N/A time=00:23:28.65 bitrate=N/A speed=19.4x    frame=34000 fps=464 q=-0.0 size=N/A time=00:23:38.08 bitrate=N/A speed=19.4x    [Parsed_psnr_10 @ 0000023babd22340] PSNR y:47.667184 u:49.788136 v:49.510672 average:48.232455 min:39.836032 max:inf
[out#0/null @ 0000023ba4243b80] video:14709KiB audio:267740KiB subtitle:0KiB other streams:0KiB global headers:0KiB muxing overhead: unknown
frame=34233 fps=465 q=-0.0 Lsize=N/A time=00:23:47.80 bitrate=N/A speed=19.4x    
